<svg id="visual" viewBox="0 0 1920 1080" width="1920" height="1080" xmlns="http://www.w3.org/2000/svg" xmlns:xlink="http://www.w3.org/1999/xlink" version="1.1"><rect x="0" y="0" width="1920" height="1080" fill="#ffffff"></rect><path d="M0 869L45.7 871.7C91.3 874.3 182.7 879.7 274.2 879.8C365.7 880 457.3 875 548.8 865.7C640.3 856.3 731.7 842.7 823 848.8C914.3 855 1005.7 881 1097 892.3C1188.3 903.7 1279.7 900.3 1371.2 885.2C1462.7 870 1554.3 843 1645.8 834.3C1737.3 825.7 1828.7 835.3 1874.3 840.2L1920 845L1920 1081L1874.3 1081C1828.7 1081 1737.3 1081 1645.8 1081C1554.3 1081 1462.7 1081 1371.2 1081C1279.7 1081 1188.3 1081 1097 1081C1005.7 1081 914.3 1081 823 1081C731.7 1081 640.3 1081 548.8 1081C457.3 1081 365.7 1081 274.2 1081C182.7 1081 91.3 1081 45.7 1081L0 1081Z" fill="#44ffef"></path><path d="M0 917L45.7 922.2C91.3 927.3 182.7 937.7 274.2 935.3C365.7 933 457.3 918 548.8 913.7C640.3 909.3 731.7 915.7 823 923.5C914.3 931.3 1005.7 940.7 1097 939C1188.3 937.3 1279.7 924.7 1371.2 922.7C1462.7 920.7 1554.3 929.3 1645.8 928.5C1737.3 927.7 1828.7 917.3 1874.3 912.2L1920 907L1920 1081L1874.3 1081C1828.7 1081 1737.3 1081 1645.8 1081C1554.3 1081 1462.7 1081 1371.2 1081C1279.7 1081 1188.3 1081 1097 1081C1005.7 1081 914.3 1081 823 1081C731.7 1081 640.3 1081 548.8 1081C457.3 1081 365.7 1081 274.2 1081C182.7 1081 91.3 1081 45.7 1081L0 1081Z" fill="#38f2e2"></path><path d="M0 911L45.7 921.5C91.3 932 182.7 953 274.2 957.2C365.7 961.3 457.3 948.7 548.8 940.7C640.3 932.7 731.7 929.3 823 927.8C914.3 926.3 1005.7 926.7 1097 926.7C1188.3 926.7 1279.7 926.3 1371.2 935.2C1462.7 944 1554.3 962 1645.8 965.5C1737.3 969 1828.7 958 1874.3 952.5L1920 947L1920 1081L1874.3 1081C1828.7 1081 1737.3 1081 1645.8 1081C1554.3 1081 1462.7 1081 1371.2 1081C1279.7 1081 1188.3 1081 1097 1081C1005.7 1081 914.3 1081 823 1081C731.7 1081 640.3 1081 548.8 1081C457.3 1081 365.7 1081 274.2 1081C182.7 1081 91.3 1081 45.7 1081L0 1081Z" fill="#2be5d5"></path><path d="M0 1008L45.7 1008.2C91.3 1008.3 182.7 1008.7 274.2 1002C365.7 995.3 457.3 981.7 548.8 980.7C640.3 979.7 731.7 991.3 823 995.3C914.3 999.3 1005.7 995.7 1097 991.7C1188.3 987.7 1279.7 983.3 1371.2 982C1462.7 980.7 1554.3 982.3 1645.8 982.3C1737.3 982.3 1828.7 980.7 1874.3 979.8L1920 979L1920 1081L1874.3 1081C1828.7 1081 1737.3 1081 1645.8 1081C1554.3 1081 1462.7 1081 1371.2 1081C1279.7 1081 1188.3 1081 1097 1081C1005.7 1081 914.3 1081 823 1081C731.7 1081 640.3 1081 548.8 1081C457.3 1081 365.7 1081 274.2 1081C182.7 1081 91.3 1081 45.7 1081L0 1081Z" fill="#1bd8c8"></path><path d="M0 1003L45.7 1004.5C91.3 1006 182.7 1009 274.2 1011.5C365.7 1014 457.3 1016 548.8 1020C640.3 1024 731.7 1030 823 1029.5C914.3 1029 1005.7 1022 1097 1020.5C1188.3 1019 1279.7 1023 1371.2 1027.7C1462.7 1032.3 1554.3 1037.7 1645.8 1040.7C1737.3 1043.7 1828.7 1044.3 1874.3 1044.7L1920 1045L1920 1081L1874.3 1081C1828.7 1081 1737.3 1081 1645.8 1081C1554.3 1081 1462.7 1081 1371.2 1081C1279.7 1081 1188.3 1081 1097 1081C1005.7 1081 914.3 1081 823 1081C731.7 1081 640.3 1081 548.8 1081C457.3 1081 365.7 1081 274.2 1081C182.7 1081 91.3 1081 45.7 1081L0 1081Z" fill="#00ccbb"></path></svg>