<svg id="visual" viewBox="0 0 1920 1080" width="1920" height="1080" xmlns="http://www.w3.org/2000/svg" xmlns:xlink="http://www.w3.org/1999/xlink" version="1.1"><rect x="0" y="0" width="1920" height="1080" fill="#fff"></rect><path d="M0 385L45.7 373.7C91.3 362.3 182.7 339.7 274.2 343.3C365.7 347 457.3 377 548.8 369.2C640.3 361.3 731.7 315.7 823 299.3C914.3 283 1005.7 296 1097 298.3C1188.3 300.7 1279.7 292.3 1371.2 315.5C1462.7 338.7 1554.3 393.3 1645.8 391.5C1737.3 389.7 1828.7 331.3 1874.3 302.2L1920 273L1920 0L1874.3 0C1828.7 0 1737.3 0 1645.8 0C1554.3 0 1462.7 0 1371.2 0C1279.7 0 1188.3 0 1097 0C1005.7 0 914.3 0 823 0C731.7 0 640.3 0 548.8 0C457.3 0 365.7 0 274.2 0C182.7 0 91.3 0 45.7 0L0 0Z" fill="#a6fff8"></path><path d="M0 345L45.7 328.5C91.3 312 182.7 279 274.2 278.3C365.7 277.7 457.3 309.3 548.8 309.8C640.3 310.3 731.7 279.7 823 279C914.3 278.3 1005.7 307.7 1097 302.3C1188.3 297 1279.7 257 1371.2 243.5C1462.7 230 1554.3 243 1645.8 265.7C1737.3 288.3 1828.7 320.7 1874.3 336.8L1920 353L1920 0L1874.3 0C1828.7 0 1737.3 0 1645.8 0C1554.3 0 1462.7 0 1371.2 0C1279.7 0 1188.3 0 1097 0C1005.7 0 914.3 0 823 0C731.7 0 640.3 0 548.8 0C457.3 0 365.7 0 274.2 0C182.7 0 91.3 0 45.7 0L0 0Z" fill="#8cf5ec"></path><path d="M0 234L45.7 230C91.3 226 182.7 218 274.2 227C365.7 236 457.3 262 548.8 261.8C640.3 261.7 731.7 235.3 823 234.7C914.3 234 1005.7 259 1097 261C1188.3 263 1279.7 242 1371.2 236.7C1462.7 231.3 1554.3 241.7 1645.8 243.5C1737.3 245.3 1828.7 238.7 1874.3 235.3L1920 232L1920 0L1874.3 0C1828.7 0 1737.3 0 1645.8 0C1554.3 0 1462.7 0 1371.2 0C1279.7 0 1188.3 0 1097 0C1005.7 0 914.3 0 823 0C731.7 0 640.3 0 548.8 0C457.3 0 365.7 0 274.2 0C182.7 0 91.3 0 45.7 0L0 0Z" fill="#70ebe0"></path><path d="M0 212L45.7 207.5C91.3 203 182.7 194 274.2 177.3C365.7 160.7 457.3 136.3 548.8 126.2C640.3 116 731.7 120 823 121.7C914.3 123.3 1005.7 122.7 1097 134.2C1188.3 145.7 1279.7 169.3 1371.2 181.5C1462.7 193.7 1554.3 194.3 1645.8 183.2C1737.3 172 1828.7 149 1874.3 137.5L1920 126L1920 0L1874.3 0C1828.7 0 1737.3 0 1645.8 0C1554.3 0 1462.7 0 1371.2 0C1279.7 0 1188.3 0 1097 0C1005.7 0 914.3 0 823 0C731.7 0 640.3 0 548.8 0C457.3 0 365.7 0 274.2 0C182.7 0 91.3 0 45.7 0L0 0Z" fill="#4fe1d4"></path><path d="M0 123L45.7 113.5C91.3 104 182.7 85 274.2 75.7C365.7 66.3 457.3 66.7 548.8 71.5C640.3 76.3 731.7 85.7 823 89.2C914.3 92.7 1005.7 90.3 1097 85.5C1188.3 80.7 1279.7 73.3 1371.2 72C1462.7 70.7 1554.3 75.3 1645.8 76.5C1737.3 77.7 1828.7 75.3 1874.3 74.2L1920 73L1920 0L1874.3 0C1828.7 0 1737.3 0 1645.8 0C1554.3 0 1462.7 0 1371.2 0C1279.7 0 1188.3 0 1097 0C1005.7 0 914.3 0 823 0C731.7 0 640.3 0 548.8 0C457.3 0 365.7 0 274.2 0C182.7 0 91.3 0 45.7 0L0 0Z" fill="#1bd7c7"></path></svg>